<?xml version="1.0" standalone="no"?><!DOCTYPE svg PUBLIC "-//W3C//DTD SVG 1.1//EN" "http://www.w3.org/Graphics/SVG/1.1/DTD/svg11.dtd"><svg t="1657706734277" class="icon" viewBox="0 0 1024 1024" version="1.1" xmlns="http://www.w3.org/2000/svg" p-id="24268" width="200" height="200" xmlns:xlink="http://www.w3.org/1999/xlink"><defs><style type="text/css"></style></defs><path d="M812.8 130.133333c-49.066667-40.533333-123.733333-32-168.533333 12.8L213.333333 573.866667l-12.8 12.8-44.8 198.4c-2.133333 10.666667 6.4 21.333333 19.2 19.2l198.4-44.8 10.666667-12.8 435.2-435.2c51.2-51.2 49.066667-134.4-6.4-181.333334z" fill="#5D70EA" p-id="24269" data-spm-anchor-id="a313x.7781069.0.i11" class=""></path><path d="M168.533333 814.933333c-6.4 0-12.8-2.133333-17.066666-8.533333-6.4-6.4-8.533333-14.933333-6.4-25.6l44.8-200.533333L635.733333 136.533333c51.2-51.2 132.266667-57.6 183.466667-14.933333 29.866667 23.466667 46.933333 57.6 46.933333 96 2.133333 38.4-12.8 74.666667-38.4 100.266667L377.6 770.133333l-200.533333 44.8h-8.533334z m40.533334-224l-44.8 196.266667v4.266667s2.133333 2.133333 4.266666 2.133333l196.266667-42.666667L810.666667 305.066667c21.333333-21.333333 34.133333-53.333333 32-85.333334-2.133333-32-14.933333-59.733333-40.533334-81.066666-42.666667-36.266667-110.933333-29.866667-155.733333 12.8L209.066667 590.933333z" fill="#5D70EA" p-id="24270" data-spm-anchor-id="a313x.7781069.0.i13" class="selected"></path><path d="M682.666667 230.4l-55.466667-55.466667c-4.266667-4.266667-4.266667-12.8 0-17.066666 4.266667-4.266667 12.8-4.266667 17.066667 0l55.466666 55.466666c4.266667 4.266667 4.266667 12.8 0 17.066667-4.266667 4.266667-12.8 4.266667-17.066666 0zM650.666667 262.4l-55.466667-55.466667c-4.266667-4.266667-4.266667-12.8 0-17.066666 4.266667-4.266667 12.8-4.266667 17.066667 0l55.466666 55.466666c4.266667 4.266667 4.266667 12.8 0 17.066667-4.266667 4.266667-12.8 4.266667-17.066666 0zM409.6 704l-55.466667-55.466667c-4.266667-4.266667-4.266667-12.8 0-17.066666 4.266667-4.266667 12.8-4.266667 17.066667 0l55.466667 55.466666c4.266667 4.266667 4.266667 12.8 0 17.066667-4.266667 6.4-12.8 6.4-17.066667 0zM377.6 736L322.133333 682.666667c-4.266667-4.266667-4.266667-12.8 0-17.066667 4.266667-4.266667 12.8-4.266667 17.066667 0l55.466667 55.466667c4.266667 4.266667 4.266667 12.8 0 17.066666-4.266667 4.266667-12.8 4.266667-17.066667-2.133333z" fill="#FCFCFC" p-id="24271"></path><path d="M682.666667 230.4l-55.466667-55.466667c-4.266667-4.266667-4.266667-12.8 0-17.066666 4.266667-4.266667 12.8-4.266667 17.066667 0l55.466666 55.466666c4.266667 4.266667 4.266667 12.8 0 17.066667-4.266667 4.266667-12.8 4.266667-17.066666 0zM650.666667 262.4l-55.466667-55.466667c-4.266667-4.266667-4.266667-12.8 0-17.066666 4.266667-4.266667 12.8-4.266667 17.066667 0l55.466666 55.466666c4.266667 4.266667 4.266667 12.8 0 17.066667-4.266667 4.266667-12.8 4.266667-17.066666 0zM409.6 704l-55.466667-55.466667c-4.266667-4.266667-4.266667-12.8 0-17.066666 4.266667-4.266667 12.8-4.266667 17.066667 0l55.466667 55.466666c4.266667 4.266667 4.266667 12.8 0 17.066667-4.266667 6.4-12.8 6.4-17.066667 0zM377.6 736L322.133333 682.666667c-4.266667-4.266667-4.266667-12.8 0-17.066667 4.266667-4.266667 12.8-4.266667 17.066667 0l55.466667 55.466667c4.266667 4.266667 4.266667 12.8 0 17.066666-4.266667 4.266667-12.8 4.266667-17.066667-2.133333z" fill="#FCFCFC" p-id="24272"></path><path d="M902.4 893.866667H145.066667c-12.8 0-21.333333-8.533333-21.333334-21.333334s8.533333-21.333333 21.333334-21.333333h759.466666c12.8 0 21.333333 8.533333 21.333334 21.333333s-10.666667 21.333333-23.466667 21.333334z" fill="#5D70EA" p-id="24273" data-spm-anchor-id="a313x.7781069.0.i15" class="selected"></path></svg>