<?xml version="1.0" standalone="no"?><!DOCTYPE svg PUBLIC "-//W3C//DTD SVG 1.1//EN" "http://www.w3.org/Graphics/SVG/1.1/DTD/svg11.dtd"><svg t="1658736491684" class="icon" viewBox="0 0 1024 1024" version="1.1" xmlns="http://www.w3.org/2000/svg" p-id="40168" xmlns:xlink="http://www.w3.org/1999/xlink" width="200" height="200"><defs><style type="text/css"></style></defs><path d="M810.666667 938.666667H213.333333c-72.533333 0-128-55.466667-128-128V213.333333c0-72.533333 55.466667-128 128-128h597.333334c72.533333 0 128 55.466667 128 128v597.333334c0 72.533333-55.466667 128-128 128zM213.333333 170.666667c-25.6 0-42.666667 17.066667-42.666666 42.666666v597.333334c0 25.6 17.066667 42.666667 42.666666 42.666666h597.333334c25.6 0 42.666667-17.066667 42.666666-42.666666V213.333333c0-25.6-17.066667-42.666667-42.666666-42.666666H213.333333z" p-id="40169"></path><path d="M362.666667 469.333333C302.933333 469.333333 256 422.4 256 362.666667S302.933333 256 362.666667 256 469.333333 302.933333 469.333333 362.666667 422.4 469.333333 362.666667 469.333333z m0-128c-12.8 0-21.333333 8.533333-21.333334 21.333334s8.533333 21.333333 21.333334 21.333333 21.333333-8.533333 21.333333-21.333333-8.533333-21.333333-21.333333-21.333334zM213.333333 938.666667c-12.8 0-21.333333-4.266667-29.866666-12.8-17.066667-17.066667-17.066667-42.666667 0-59.733334l469.333333-469.333333c17.066667-17.066667 42.666667-17.066667 59.733333 0l213.333334 213.333333c17.066667 17.066667 17.066667 42.666667 0 59.733334s-42.666667 17.066667-59.733334 0L682.666667 486.4 243.2 925.866667c-8.533333 8.533333-17.066667 12.8-29.866667 12.8z" p-id="40170"></path></svg>