<?xml version="1.0" standalone="no"?><!DOCTYPE svg PUBLIC "-//W3C//DTD SVG 1.1//EN" "http://www.w3.org/Graphics/SVG/1.1/DTD/svg11.dtd"><svg t="1658738356051" class="icon" viewBox="0 0 1024 1024" version="1.1" xmlns="http://www.w3.org/2000/svg" p-id="41290" xmlns:xlink="http://www.w3.org/1999/xlink" width="200" height="200"><defs><style type="text/css"></style></defs><path d="M749.47 411.32L500.72 660.08c-16.83 16.83-42.07 16.83-58.9 0L294.03 512.29c-16.83-16.83-16.83-42.07 0-58.9s42.07-16.83 58.9 0l119.75 119.75 217.91-217.91c16.83-16.83 42.07-16.83 58.9 0 16.81 16.82 16.81 39.26-0.02 56.09zM195.02 193.15c-173.88 173.89-173.88 459.95 0 633.84 173.89 173.88 459.96 173.88 633.84 0 173.88-173.89 173.88-459.95 0-633.84-173.9-173.89-459.95-176.69-633.84 0z" p-id="41291"></path></svg>