<?xml version="1.0" standalone="no"?><!DOCTYPE svg PUBLIC "-//W3C//DTD SVG 1.1//EN" "http://www.w3.org/Graphics/SVG/1.1/DTD/svg11.dtd"><svg t="1658736444939" class="icon" viewBox="0 0 1024 1024" version="1.1" xmlns="http://www.w3.org/2000/svg" p-id="38348" xmlns:xlink="http://www.w3.org/1999/xlink" width="200" height="200"><defs><style type="text/css"></style></defs><path d="M632.661333 330.965333l-241.322666 241.365334a42.666667 42.666667 0 1 0 60.330666 60.330666l241.365334-241.322666A128 128 0 1 0 512 210.304l-241.365333 241.365333a213.333333 213.333333 0 1 0 301.696 301.653334L813.696 512l60.330667 60.330667-241.365334 241.365333a298.666667 298.666667 0 1 1-422.4-422.4l241.408-241.322667a213.333333 213.333333 0 0 1 301.653334 301.653334L512 693.077333A128 128 0 1 1 330.965333 512l241.365334-241.365333 60.330666 60.330666z" p-id="38349"></path></svg>