<?xml version="1.0" standalone="no"?><!DOCTYPE svg PUBLIC "-//W3C//DTD SVG 1.1//EN" "http://www.w3.org/Graphics/SVG/1.1/DTD/svg11.dtd"><svg t="1701413247893" class="icon" viewBox="0 0 1024 1024" version="1.1" xmlns="http://www.w3.org/2000/svg" p-id="8629" xmlns:xlink="http://www.w3.org/1999/xlink" width="200" height="200"><path d="M855.466667 469.333333H265.813333l173.653334-183.04a42.666667 42.666667 0 0 0 0-60.586666 38.826667 38.826667 0 0 0-55.466667 0l-242.346667 256a42.666667 42.666667 0 0 0-8.96 14.08 46.933333 46.933333 0 0 0 0 32.426666 42.666667 42.666667 0 0 0 8.96 14.08l242.346667 256a42.666667 42.666667 0 0 0 28.586667 12.373334 39.68 39.68 0 0 0 28.586666-12.373334 42.666667 42.666667 0 0 0 0-60.586666L265.813333 554.666667h589.653334a42.666667 42.666667 0 0 0 0-85.333334z" fill="#252627" p-id="8630"></path></svg>