<?xml version="1.0" standalone="no"?><!DOCTYPE svg PUBLIC "-//W3C//DTD SVG 1.1//EN" "http://www.w3.org/Graphics/SVG/1.1/DTD/svg11.dtd"><svg t="1677151195578" class="icon" viewBox="0 0 1024 1024" version="1.1" xmlns="http://www.w3.org/2000/svg" p-id="5935" xmlns:xlink="http://www.w3.org/1999/xlink" width="200" height="200"><path d="M157.37 394.68V869h711.49V216.8H750.27v29.65c0 8.65-2.78 15.75-8.34 21.31s-12.66 8.34-21.3 8.34c-8.65 0-15.75-2.78-21.31-8.34s-8.34-12.66-8.34-21.31V216.8H335.24v29.65c0 8.65-2.78 15.75-8.34 21.31s-12.66 8.34-21.31 8.34-15.75-2.78-21.31-8.34-8.34-12.66-8.34-21.31V216.8H157.37v118.58h711.49v59.29l-711.49 0.01z m177.87-237.16h355.74v-29.65c0-8.65 2.78-15.75 8.34-21.31s12.66-8.34 21.31-8.34 15.75 2.78 21.31 8.34 8.33 12.66 8.33 21.31v29.65H898.5c8.65 0 15.75 2.78 21.31 8.34s8.33 12.66 8.33 21.31v711.49c0 8.65-2.78 15.75-8.33 21.31-5.56 5.56-12.66 8.33-21.31 8.33H127.72c-8.65 0-15.75-2.78-21.31-8.33-5.56-5.56-8.34-12.66-8.34-21.31v-711.5c0-8.65 2.78-15.75 8.34-21.31s12.66-8.34 21.31-8.34h148.23v-29.65c0-8.65 2.78-15.75 8.34-21.31s12.66-8.34 21.31-8.34 15.75 2.78 21.31 8.34 8.34 12.66 8.34 21.31v29.66h-0.01z m-29.65 355.74h59.29c8.65 0 15.75 2.78 21.31 8.33 5.56 5.56 8.34 12.66 8.34 21.31s-2.78 15.75-8.34 21.31-12.66 8.33-21.31 8.33h-59.29c-8.65 0-15.75-2.78-21.31-8.33-5.56-5.56-8.34-12.66-8.34-21.31s2.78-15.75 8.34-21.31c5.56-5.55 12.67-8.33 21.31-8.33z m0 177.87h59.29c8.65 0 15.75 2.78 21.31 8.33 5.56 5.56 8.34 12.66 8.34 21.31s-2.78 15.75-8.34 21.31-12.66 8.33-21.31 8.33h-59.29c-8.65 0-15.75-2.78-21.31-8.33-5.56-5.56-8.34-12.66-8.34-21.31s2.78-15.75 8.34-21.31c5.56-5.55 12.67-8.33 21.31-8.33z m177.88-177.87h59.29c8.65 0 15.75 2.78 21.31 8.33 5.56 5.56 8.34 12.66 8.34 21.31s-2.78 15.75-8.34 21.31-12.66 8.33-21.31 8.33h-59.29c-8.65 0-15.75-2.78-21.31-8.33-5.56-5.56-8.34-12.66-8.34-21.31s2.78-15.75 8.34-21.31c5.56-5.55 12.66-8.33 21.31-8.33z m0 177.87h59.29c8.65 0 15.75 2.78 21.31 8.33 5.56 5.56 8.34 12.66 8.34 21.31s-2.78 15.75-8.34 21.31-12.66 8.33-21.31 8.33h-59.29c-8.65 0-15.75-2.78-21.31-8.33-5.56-5.56-8.34-12.66-8.34-21.31s2.78-15.75 8.34-21.31c5.56-5.55 12.66-8.33 21.31-8.33z m177.87-177.87h59.29c8.65 0 15.75 2.78 21.3 8.33 5.56 5.56 8.34 12.66 8.34 21.31s-2.78 15.75-8.34 21.31-12.66 8.33-21.3 8.33h-59.29c-8.65 0-15.75-2.78-21.31-8.33-5.56-5.56-8.34-12.66-8.34-21.31s2.78-15.75 8.34-21.31c5.56-5.55 12.66-8.33 21.31-8.33z m0 177.87h59.29c8.65 0 15.75 2.78 21.3 8.33 5.56 5.56 8.34 12.66 8.34 21.31s-2.78 15.75-8.34 21.31-12.66 8.33-21.3 8.33h-59.29c-8.65 0-15.75-2.78-21.31-8.33-5.56-5.56-8.34-12.66-8.34-21.31s2.78-15.75 8.34-21.31c5.56-5.55 12.66-8.33 21.31-8.33z" p-id="5936" fill="#2B2B2B"></path></svg>