<?xml version="1.0" standalone="no"?><!DOCTYPE svg PUBLIC "-//W3C//DTD SVG 1.1//EN" "http://www.w3.org/Graphics/SVG/1.1/DTD/svg11.dtd"><svg t="1658734831367" class="icon" viewBox="0 0 1024 1024" version="1.1" xmlns="http://www.w3.org/2000/svg" p-id="35831" xmlns:xlink="http://www.w3.org/1999/xlink" width="200" height="200"><defs><style type="text/css"></style></defs><path d="M510.365091 1018.973091c-280.843636 0-509.323636-228.48-509.323636-509.323636S229.521455 0.325818 510.365091 0.325818s509.323636 228.48 509.323636 509.323637-228.48 509.323636-509.323636 509.323636z" fill="#5874CF" p-id="35832"></path><path d="M510.365091 70.202182c-242.327273 0-439.505455 197.178182-439.505455 439.505454 0 242.327273 197.178182 439.505455 439.505455 439.505455 242.327273 0 439.505455-197.178182 439.505454-439.505455 0-242.385455-197.178182-439.505455-439.505454-439.505454z" fill="#839EF8" p-id="35833"></path><path d="M332.386909 731.904c-12.101818 0-24.029091-4.770909-32.872727-13.672727a46.376727 46.376727 0 0 1-10.298182-49.745455l96.989091-245.818182c4.654545-11.752727 13.963636-21.178182 25.658182-25.949091l258.443636-105.250909a46.312727 46.312727 0 0 1 50.269091 10.123637 46.434909 46.434909 0 0 1 10.24 50.269091l-102.283636 252.450909a46.429091 46.429091 0 0 1-26.123637 25.774545l-253.207272 98.676364c-5.469091 2.094545-11.170909 3.141818-16.814546 3.141818z m115.083636-274.269091l-73.6 186.589091 193.745455-75.461818 77.672727-191.650909-197.818182 80.523636z" fill="#FFFFFF" p-id="35834"></path></svg>