<?xml version="1.0" standalone="no"?><!DOCTYPE svg PUBLIC "-//W3C//DTD SVG 1.1//EN" "http://www.w3.org/Graphics/SVG/1.1/DTD/svg11.dtd"><svg t="1658734658674" class="icon" viewBox="0 0 1048 1024" version="1.1" xmlns="http://www.w3.org/2000/svg" p-id="35531" xmlns:xlink="http://www.w3.org/1999/xlink" width="204.6875" height="200"><defs><style type="text/css"></style></defs><path d="M386.973892 440.761485H73.703473c-40.592096 0-73.580838-32.988743-73.580838-73.580838v-293.158324c0-40.592096 32.988743-73.580838 73.580838-73.580838h313.270419c40.592096 0 73.580838 32.988743 73.580839 73.580838v293.158324c0 40.530778-32.988743 73.580838-73.580839 73.580838z" fill="#5874CF" p-id="35532"></path><path d="M73.703473 74.022323v293.158324h313.331737l-0.061318-293.158324z" fill="#839EF8" p-id="35533"></path><path d="M972.248144 440.761485h-313.270419c-40.592096 0-73.580838-32.988743-73.580839-73.580838v-293.158324c0-40.592096 32.988743-73.580838 73.580839-73.580838h313.270419c40.592096 0 73.580838 32.988743 73.580838 73.580838v293.158324c0 40.530778-32.988743 73.580838-73.580838 73.580838z" fill="#5874CF" p-id="35534"></path><path d="M658.977725 74.022323v293.158324h313.331736l-0.061317-293.158324z" fill="#839EF8" p-id="35535"></path><path d="M386.973892 1019.358275H73.703473c-40.592096 0-73.580838-32.988743-73.580838-73.580838v-293.158323c0-40.592096 32.988743-73.580838 73.580838-73.580839h313.270419c40.592096 0 73.580838 32.988743 73.580839 73.580839v293.158323c0 40.530778-32.988743 73.580838-73.580839 73.580838z" fill="#5874CF" p-id="35536"></path><path d="M73.703473 652.619114v293.158323h313.331737l-0.061318-293.158323z" fill="#839EF8" p-id="35537"></path><path d="M803.38012 1009.976719c-130.115449 0-235.949222-105.833772-235.949222-235.949222 0-130.115449 105.833772-235.949222 235.949222-235.949222 130.115449 0 235.949222 105.833772 235.949221 235.949222 0 130.115449-105.89509 235.949222-235.949221 235.949222z m0-398.256288c-89.523353 0-162.368383 72.84503-162.368383 162.368383s72.84503 162.368383 162.368383 162.368384 162.368383-72.84503 162.368383-162.368384-72.84503-162.368383-162.368383-162.368383z" fill="#5874CF" p-id="35538"></path></svg>