<?xml version="1.0" standalone="no"?><!DOCTYPE svg PUBLIC "-//W3C//DTD SVG 1.1//EN" "http://www.w3.org/Graphics/SVG/1.1/DTD/svg11.dtd"><svg t="1701928459155" class="icon" viewBox="0 0 1024 1024" version="1.1" xmlns="http://www.w3.org/2000/svg" p-id="6104" xmlns:xlink="http://www.w3.org/1999/xlink" width="200" height="200"><path d="M776.822154 78.769231a184.044308 184.044308 0 0 1 183.689846 183.926154v386.875077c0 5.986462-0.472615 11.933538-0.866462 17.84123h-182.823384a110.276923 110.276923 0 0 0-110.198154 110.395077v183.059693c-5.907692 0.393846-11.815385 0.866462-17.841231 0.866461H262.459077A184.044308 184.044308 0 0 1 78.769231 777.846154V262.695385A184.044308 184.044308 0 0 1 262.459077 78.769231h514.363077z m-220.475077 404.716307H299.244308a36.785231 36.785231 0 1 0 0 73.570462h257.102769a36.785231 36.785231 0 0 0 0-73.570462z m183.689846-183.965538H299.244308a36.785231 36.785231 0 1 0 0 73.570462H740.036923a36.785231 36.785231 0 0 0 0-73.570462z" fill="#82b1f5" p-id="6105" data-spm-anchor-id="a313x.search_index.0.i0.72cc3a81Y9bTmK" class="selected"></path><path d="M741.139692 778.712615v166.439385a255.409231 255.409231 0 0 0 90.230154-58.289231l54.350769-54.429538a255.133538 255.133538 0 0 0 58.249847-90.387693h-166.203077a36.627692 36.627692 0 0 0-36.627693 36.627693z" fill="#82b1f5" p-id="6106" data-spm-anchor-id="a313x.search_index.0.i1.72cc3a81Y9bTmK" class="selected"></path></svg>