<?xml version="1.0" standalone="no"?><!DOCTYPE svg PUBLIC "-//W3C//DTD SVG 1.1//EN" "http://www.w3.org/Graphics/SVG/1.1/DTD/svg11.dtd"><svg t="1658733799633" class="icon" viewBox="0 0 1024 1024" version="1.1" xmlns="http://www.w3.org/2000/svg" p-id="34676" xmlns:xlink="http://www.w3.org/1999/xlink" width="200" height="200"><defs><style type="text/css"></style></defs><path d="M875.382485 297.252571A127.707429 127.707429 0 0 1 1002.943628 424.228571v471.625143A127.707429 127.707429 0 0 1 875.382485 1024H747.675056V424.228571a127.707429 127.707429 0 0 1 127.707429-127.707428z" fill="#A1D4F3" p-id="34677"></path><path d="M197.787056 0h405.650286a177.152 177.152 0 0 1 177.152 177.152V1024H197.787056A177.152 177.152 0 0 1 20.635056 846.409143V177.152A177.152 177.152 0 0 1 197.787056 0z" fill="#67BAE9" p-id="34678"></path><path d="M218.559628 437.979429m0-43.885715l0 0q0-43.885714 43.885714-43.885714l276.333714 0q43.885714 0 43.885714 43.885714l0 0q0 43.885714-43.885714 43.885715l-276.333714 0q-43.885714 0-43.885714-43.885715Z" fill="#E0F2FB" p-id="34679"></path><path d="M218.559628 674.816m0-43.885714l0 0q0-43.885714 43.885714-43.885715l276.333714 0q43.885714 0 43.885714 43.885715l0 0q0 43.885714-43.885714 43.885714l-276.333714 0q-43.885714 0-43.885714-43.885714Z" fill="#E0F2FB" p-id="34680"></path></svg>