<?xml version="1.0" standalone="no"?><!DOCTYPE svg PUBLIC "-//W3C//DTD SVG 1.1//EN" "http://www.w3.org/Graphics/SVG/1.1/DTD/svg11.dtd"><svg t="1658733733258" class="icon" viewBox="0 0 1243 1024" version="1.1" xmlns="http://www.w3.org/2000/svg" p-id="34534" xmlns:xlink="http://www.w3.org/1999/xlink" width="242.7734375" height="200"><defs><style type="text/css"></style></defs><path d="M1243.280108 167.491204v689.017592c0 92.492558-67.723951 167.491204-151.036536 167.491204H151.036536C67.550744 1024 0 949.001353 0 856.508796V167.491204C0 74.998647 67.550744 0 151.036536 0h941.207036c83.312585 0 151.036536 74.998647 151.036536 167.491204z" fill="#F5AD28" p-id="34535" data-spm-anchor-id="a313x.7781069.0.i7" class="selected"></path><path d="M0 276.265223h1243.280108v103.924222H0z" fill="#F8DAB2" p-id="34536"></path><path d="M840.920162 714.305819m51.962111 0l181.867389 0q51.962111 0 51.962111 51.962111l0 0q0 51.962111-51.962111 51.962111l-181.867389 0q-51.962111 0-51.962111-51.962111l0 0q0-51.962111 51.962111-51.962111Z" fill="#FCF7EF" p-id="34537"></path></svg>