<?xml version="1.0" standalone="no"?><!DOCTYPE svg PUBLIC "-//W3C//DTD SVG 1.1//EN" "http://www.w3.org/Graphics/SVG/1.1/DTD/svg11.dtd"><svg t="1666837680559" class="icon" viewBox="0 0 1024 1024" version="1.1" xmlns="http://www.w3.org/2000/svg" p-id="11801" xmlns:xlink="http://www.w3.org/1999/xlink" width="200" height="200"><path d="M511.5 64C264.2 64 63.8 264.4 63.8 511.7s200.4 447.7 447.7 447.7S959.2 759 959.2 511.7 758.7 64 511.5 64z m265.6 713.3c-34.5 34.5-74.7 61.6-119.4 80.5-46.3 19.6-95.5 29.5-146.2 29.5-50.7 0-99.9-9.9-146.2-29.5-44.7-18.9-84.9-46-119.4-80.5s-61.6-74.7-80.5-119.4c-19.6-46.3-29.5-95.5-29.5-146.2 0-50.7 9.9-99.9 29.5-146.2 18.9-44.7 46-84.9 80.5-119.4s74.7-61.6 119.4-80.5c46.3-19.6 95.5-29.5 146.2-29.5 50.7 0 99.9 9.9 146.2 29.5 44.7 18.9 84.9 46 119.4 80.5s61.6 74.7 80.5 119.4c19.6 46.3 29.5 95.5 29.5 146.2 0 50.7-9.9 99.9-29.5 146.2-18.8 44.7-45.9 84.9-80.5 119.4z" p-id="11802" fill="#fff"></path><path d="M511.5 272C429.6 272 363 336.8 363 416.3c0 19.9 16.1 36 36 36s36-16.1 36-36c0-39.9 34.3-72.3 76.5-72.3 41.5 0 75.4 31.4 76.5 70.4-5.2 42-20.5 51.7-43.4 66.4-29.1 18.6-69 44.1-69 126.4 0 19.9 16.1 36 36 36s36-16.1 36-36c0-20.6 3.2-35.1 9.7-44.5 5.6-8.1 14.7-13.9 26.1-21.2 28.6-18.3 67.8-43.3 76.5-121.2l0.2-2v-2C660 336.8 593.4 272 511.5 272z" p-id="11803" fill="#ffffff"></path><path d="M511.5 717.3m-36 0a36 36 0 1 0 72 0 36 36 0 1 0-72 0Z" p-id="11804" fill="#ffffff"></path></svg>