<?xml version="1.0" standalone="no"?><!DOCTYPE svg PUBLIC "-//W3C//DTD SVG 1.1//EN" "http://www.w3.org/Graphics/SVG/1.1/DTD/svg11.dtd"><svg t="1673058626178" class="icon" viewBox="0 0 1024 1024" version="1.1" xmlns="http://www.w3.org/2000/svg" p-id="2447" xmlns:xlink="http://www.w3.org/1999/xlink" width="200" height="200"><path d="M862.72 337.92l-256-202.24c-56.32-43.52-133.12-43.52-189.44 0l-256 202.24C122.88 368.64 102.4 412.16 102.4 458.24V844.8c0 56.32 46.08 102.4 102.4 102.4h145.92c56.32 0 102.4-46.08 102.4-102.4v-192h140.8V844.8c0 56.32 46.08 102.4 102.4 102.4H819.2c56.32 0 102.4-46.08 102.4-102.4V458.24c0-46.08-20.48-89.6-58.88-120.32zM819.2 844.8h-122.88v-192c0-56.32-46.08-102.4-102.4-102.4h-140.8c-56.32 0-102.4 46.08-102.4 102.4V844.8H204.8V458.24c0-15.36 7.68-30.72 20.48-40.96l256-202.24c17.92-15.36 43.52-15.36 64 0l256 202.24c12.8 10.24 20.48 25.6 20.48 40.96V844.8z" p-id="2448" fill="#333333"></path></svg>