<?xml version="1.0" standalone="no"?><!DOCTYPE svg PUBLIC "-//W3C//DTD SVG 1.1//EN" "http://www.w3.org/Graphics/SVG/1.1/DTD/svg11.dtd"><svg t="1702551170356" class="icon" viewBox="0 0 1024 1024" version="1.1" xmlns="http://www.w3.org/2000/svg" p-id="27194" xmlns:xlink="http://www.w3.org/1999/xlink" width="200" height="200"><path d="M788.114286 334.628571h-557.714286c-20.114286 0-37.485714-16.457143-37.485714-35.657142 0-20.114286 16.457143-35.657143 37.485714-35.657143h557.714286c20.114286 0 37.485714 16.457143 37.485714 35.657143 0 19.2-16.457143 35.657143-37.485714 35.657142z m0 215.771429h-557.714286c-20.114286 0-37.485714-16.457143-37.485714-35.657143 0-20.114286 16.457143-35.657143 37.485714-35.657143h557.714286c20.114286 0 37.485714 16.457143 37.485714 35.657143s-16.457143 35.657143-37.485714 35.657143z m0 216.685714h-557.714286c-20.114286 0-37.485714-16.457143-37.485714-35.657143 0-20.114286 16.457143-35.657143 37.485714-35.657142h557.714286c20.114286 0 37.485714 16.457143 37.485714 35.657142 0 19.2-16.457143 35.657143-37.485714 35.657143z" fill="#515151" p-id="27195"></path></svg>