<?xml version="1.0" standalone="no"?><!DOCTYPE svg PUBLIC "-//W3C//DTD SVG 1.1//EN" "http://www.w3.org/Graphics/SVG/1.1/DTD/svg11.dtd"><svg t="1713834621413" class="icon" viewBox="0 0 1024 1024" version="1.1" xmlns="http://www.w3.org/2000/svg" p-id="34199" xmlns:xlink="http://www.w3.org/1999/xlink" width="200" height="200"><path d="M802.133333 281.6H221.866667c-17.066667 0-29.866667-12.8-29.866667-29.866667 0-17.066667 12.8-29.866667 29.866667-29.866666h580.266666c17.066667 0 29.866667 12.8 29.866667 29.866666 0 17.066667-12.8 29.866667-29.866667 29.866667zM802.133333 524.8H221.866667c-17.066667 0-29.866667-12.8-29.866667-29.866667 0-17.066667 12.8-29.866667 29.866667-29.866666h580.266666c17.066667 0 29.866667 12.8 29.866667 29.866666 0 17.066667-12.8 29.866667-29.866667 29.866667zM802.133333 768H221.866667c-17.066667 0-29.866667-12.8-29.866667-29.866667 0-17.066667 12.8-29.866667 29.866667-29.866666h580.266666c17.066667 0 29.866667 12.8 29.866667 29.866666 0 17.066667-12.8 29.866667-29.866667 29.866667z" p-id="34200" fill="#2b2b2b"></path></svg>