<?xml version="1.0" standalone="no"?><!DOCTYPE svg PUBLIC "-//W3C//DTD SVG 1.1//EN" "http://www.w3.org/Graphics/SVG/1.1/DTD/svg11.dtd"><svg t="1711942030973" class="icon" viewBox="0 0 1024 1024" version="1.1" xmlns="http://www.w3.org/2000/svg" p-id="10073" xmlns:xlink="http://www.w3.org/1999/xlink" width="200" height="200"><path d="M707.46 841.42H280.54A94.57 94.57 0 0 1 186.08 747V320a94.57 94.57 0 0 1 94.46-94.46h163.54a32 32 0 1 1 0 64H280.54A30.49 30.49 0 0 0 250.08 320v427a30.49 30.49 0 0 0 30.46 30.46h426.92A30.49 30.49 0 0 0 737.92 747V573.53a32 32 0 0 1 64 0V747a94.57 94.57 0 0 1-94.46 94.42z" fill="#272727" p-id="10074"></path><path d="M501.1 543.12a32 32 0 0 1-22.62-54.62l280-280a32 32 0 0 1 45.25 45.25l-280 280a31.9 31.9 0 0 1-22.63 9.37z" fill="#272727" p-id="10075"></path><path d="M805.92 439.72a32 32 0 0 1-32-32V246.58H596a32 32 0 0 1 0-64h194.57a47.4 47.4 0 0 1 47.35 47.35v177.79a32 32 0 0 1-32 32z m-15.35-193.14z" fill="#272727" p-id="10076"></path></svg>