<?xml version="1.0" standalone="no"?><!DOCTYPE svg PUBLIC "-//W3C//DTD SVG 1.1//EN" "http://www.w3.org/Graphics/SVG/1.1/DTD/svg11.dtd"><svg t="1658734024254" class="icon" viewBox="0 0 1024 1024" version="1.1" xmlns="http://www.w3.org/2000/svg" p-id="35249" xmlns:xlink="http://www.w3.org/1999/xlink" width="200" height="200"><defs><style type="text/css"></style></defs><path d="M1021.87 463.001c-1.42-8.521-1.42-17.043-2.84-24.144-5.682-42.607-18.464-88.055-35.507-127.822-11.362-26.985-24.144-48.289-36.927-72.433-7.1-11.362-14.202-22.724-22.724-32.666-9.941-12.782-15.622-18.463-24.144-29.825-8.521-9.942-18.463-18.463-26.985-28.405-22.724-24.144-62.49-53.97-90.896-72.433-34.086-22.724-72.432-38.347-112.2-51.129-5.68-1.42-41.187-11.362-41.187-11.362-14.202-1.42-28.405-5.68-44.027-8.521C577.33 2.84 538.985 0 537.564 0h-46.868c-4.26 1.42-22.724 1.42-28.405 2.84-122.141 11.362-230.08 65.332-312.455 147.706C67.462 232.921 14.913 342.28 3.551 460.161c-1.42 5.68-1.42 24.144-2.84 28.405v45.448c1.42 4.26 1.42 22.724 2.84 28.405 2.84 26.985 7.1 51.129 14.202 78.114 18.463 76.693 53.97 140.604 102.258 200.255l14.203 17.043c5.68 4.26 9.941 9.942 14.202 15.623 82.375 82.374 190.314 134.923 309.615 147.706 5.68 0 24.144 1.42 28.405 2.84h46.868c4.26-1.42 22.724-1.42 28.405-2.84 8.521 0 18.463-1.42 26.984-2.841 51.13-8.521 95.157-22.724 140.605-42.607 53.97-24.145 102.258-59.651 143.445-100.838 82.375-83.795 134.924-190.314 146.286-309.615 0-5.68 1.42-25.564 2.84-28.405v-73.853z m-134.924-34.086l-52.55 42.608c-12.782 9.942-22.723 19.883-35.506 29.825-14.202 11.362-36.926 32.666-51.129 44.028l-17.043 14.202c-7.1 5.681-11.362 7.102-11.362 12.783 0 1.42 1.42 4.26 1.42 7.1 2.841 18.464 21.304 133.504 21.304 137.765v2.84l14.203 93.737c1.42 9.942 4.26 24.144 4.26 32.666-2.84 4.26-8.52 9.942-15.622 8.521-4.26 0-12.782-7.101-15.623-8.521-28.405-17.043-59.65-36.927-88.055-53.97-32.666-19.883-69.593-42.607-103.679-63.91-2.84-1.421-12.782-7.102-14.202-9.943-2.84 0-4.26-2.84-7.101-2.84l-103.678 63.911c-35.507 22.724-73.853 45.448-109.36 66.752-4.26 2.84-9.941 7.101-14.202 8.521-22.724 0-17.043-4.26-11.362-46.868 1.42-18.463 26.985-231.5 26.985-240.022l-89.476-78.114c-11.362-9.942-34.086-31.245-45.448-39.767l-36.927-26.985c-2.84-1.42-9.941-5.68-11.362-8.521H389.86c7.1-14.203 24.144-41.187 32.665-58.23 9.942-19.884 18.464-41.188 28.405-62.491 5.681-9.942 9.942-19.884 15.623-31.246l36.927-78.114c8.521-18.463 4.26-15.622 24.144-14.202l79.534 153.387c5.68 9.942 9.941 21.304 15.622 31.245l17.043 29.826c5.681 9.941 12.783 19.883 17.043 29.825 19.884 1.42 41.188 0 61.071 0h167.59c5.68 0 12.782-1.42 12.782 0 5.68 2.84-5.681 9.942-11.362 14.202z" fill="#F5C01C" p-id="35250"></path><path d="M585.853 543.956l12.782-12.783 95.157-85.215H338.73l232.92 39.767c-11.362 9.942-46.868 39.767-62.49 51.13-19.884 17.042-44.028 35.506-62.491 51.128-18.464 14.203-44.028 35.507-62.491 51.13l-46.869 38.346c-4.26 2.84-12.782 9.942-15.622 12.782 22.724 1.42 69.592 0 95.156 0h237.182c9.942 0 38.347 1.42 46.868 0l-222.979-48.288c2.84-5.681 93.736-85.215 107.939-97.997z" fill="#F5C01C" p-id="35251"></path></svg>