<?xml version="1.0" standalone="no"?><!DOCTYPE svg PUBLIC "-//W3C//DTD SVG 1.1//EN" "http://www.w3.org/Graphics/SVG/1.1/DTD/svg11.dtd"><svg t="1721726358566" class="icon" viewBox="0 0 1024 1024" version="1.1" xmlns="http://www.w3.org/2000/svg" p-id="4285" xmlns:xlink="http://www.w3.org/1999/xlink" width="200" height="200"><path d="M780.8 614.4c-42.666667 106.666667-145.066667 179.2-260.266667 179.2-119.466667 0-221.866667-76.8-260.266666-183.466667-4.266667-12.8 0-21.333333 12.8-25.6 12.8-4.266667 21.333333 0 25.6 12.8 34.133333 93.866667 119.466667 157.866667 221.866666 157.866667 98.133333 0 187.733333-64 221.866667-153.6l-34.133333 21.333333c-8.533333 4.266667-21.333333 4.266667-29.866667-8.533333-4.266667-8.533333-4.266667-21.333333 8.533333-29.866667l72.533334-42.666666c8.533333-4.266667 21.333333-4.266667 29.866666 8.533333l42.666667 72.533333c4.266667 8.533333 4.266667 21.333333-8.533333 29.866667s-21.333333 4.266667-29.866667-8.533333l-12.8-29.866667zM247.466667 460.8c25.6-128 140.8-221.866667 273.066666-221.866667 136.533333 0 251.733333 98.133333 273.066667 230.4 0 12.8-4.266667 21.333333-17.066667 25.6-12.8 0-21.333333-4.266667-25.6-17.066666-17.066667-110.933333-115.2-196.266667-230.4-196.266667-110.933333 0-204.8 76.8-230.4 183.466667l25.6-12.8c8.533333-4.266667 21.333333-4.266667 29.866667 8.533333s4.266667 21.333333-8.533333 29.866667l-72.533334 42.666666c-8.533333 4.266667-21.333333 4.266667-29.866666-8.533333l-42.666667-72.533333c-4.266667-8.533333-4.266667-21.333333 8.533333-29.866667s21.333333-8.533333 29.866667 4.266667l17.066667 34.133333z" p-id="4286" fill="#666666"></path></svg>