<?xml version="1.0" standalone="no"?><!DOCTYPE svg PUBLIC "-//W3C//DTD SVG 1.1//EN" "http://www.w3.org/Graphics/SVG/1.1/DTD/svg11.dtd"><svg t="1673058598376" class="icon" viewBox="0 0 1024 1024" version="1.1" xmlns="http://www.w3.org/2000/svg" p-id="2197" xmlns:xlink="http://www.w3.org/1999/xlink" width="200" height="200"><path d="M793.6 307.2H532.48l-35.84-110.08C481.28 156.16 442.88 128 399.36 128H179.2C122.88 128 76.8 174.08 76.8 230.4v537.6c0 84.48 69.12 153.6 153.6 153.6h563.2c84.48 0 153.6-69.12 153.6-153.6V460.8c0-84.48-69.12-153.6-153.6-153.6zM179.2 230.4h220.16l25.6 76.8H179.2V230.4z m665.6 537.6c0 28.16-23.04 51.2-51.2 51.2H230.4c-28.16 0-51.2-23.04-51.2-51.2V409.6h614.4c28.16 0 51.2 23.04 51.2 51.2v307.2z" p-id="2198" fill="#333333"></path></svg>