<?xml version="1.0" standalone="no"?><!DOCTYPE svg PUBLIC "-//W3C//DTD SVG 1.1//EN" "http://www.w3.org/Graphics/SVG/1.1/DTD/svg11.dtd"><svg t="1720598813227" class="icon" viewBox="0 0 1024 1024" version="1.1" xmlns="http://www.w3.org/2000/svg" p-id="7575" xmlns:xlink="http://www.w3.org/1999/xlink" width="200" height="200"><path d="M780.190476 97.52381a73.142857 73.142857 0 0 1 73.142857 73.142857v682.666666a73.142857 73.142857 0 0 1-73.142857 73.142857H243.809524a73.142857 73.142857 0 0 1-73.142857-73.142857V170.666667a73.142857 73.142857 0 0 1 73.142857-73.142857h536.380952z m0 707.047619H243.809524v48.761904h536.380952v-48.761904zM316.952381 170.666667h-73.142857v560.761904h536.380952V170.666667h-219.428571v292.571428l-121.904762-53.784381L316.952381 463.238095V170.666667z m170.666667 0h-97.52381v180.345904l48.761905-21.504 48.761905 21.504V170.666667z" p-id="7576" fill="#0d66e4"></path></svg>