<?xml version="1.0" standalone="no"?><!DOCTYPE svg PUBLIC "-//W3C//DTD SVG 1.1//EN" "http://www.w3.org/Graphics/SVG/1.1/DTD/svg11.dtd"><svg t="1658734753841" class="icon" viewBox="0 0 1024 1024" version="1.1" xmlns="http://www.w3.org/2000/svg" p-id="35677" xmlns:xlink="http://www.w3.org/1999/xlink" width="200" height="200"><defs><style type="text/css"></style></defs><path d="M512 512.002m-511.998 0a511.998 511.998 0 1 0 1023.996 0 511.998 511.998 0 1 0-1023.996 0Z" fill="#1669AD" p-id="35678"></path><path d="M511.998 512.004m-407.00441 0a407.00441 407.00441 0 1 0 814.00882 0 407.00441 407.00441 0 1 0-814.00882 0Z" fill="#2A81C2" p-id="35679"></path><path d="M797.540885 356.286608c0-22.897911-8.393967-44.405827-23.09391-63.105753l0.058 0.044c-0.131999-0.167999-0.273999-0.335999-0.409999-0.503998a141.463447 141.463447 0 0 0-1.117995-1.387995c-0.261999-0.321999-0.515998-0.647997-0.785997-0.969996v0.044c-6.631974-7.971969-14.393944-15.41594-23.19191-22.193914a59.519768 59.519768 0 0 0-9.437963-35.291862l-0.125999-0.193999a59.963766 59.963766 0 0 0-7.107973-8.947965l-0.203999-0.211999a60.179765 60.179765 0 0 0-5.539978-5.023981l-0.409999-0.323998a61.805759 61.805759 0 0 0-2.667989-1.981993c-0.114-0.08-0.225999-0.163999-0.339999-0.241999a62.887754 62.887754 0 0 0-3.155988-2.039992c-0.042-0.024-0.086-0.046-0.127999-0.071999a60.755763 60.755763 0 0 0-6.561974-3.381987c-0.155999-0.07-0.307999-0.141999-0.463999-0.209999a57.603775 57.603775 0 0 0-3.397986-1.337995c-0.213999-0.076-0.433998-0.147999-0.651998-0.219999-0.929996-0.319999-1.871993-0.621998-2.819989-0.895997-0.319999-0.092-0.635998-0.185999-0.957996-0.271999a59.379768 59.379768 0 0 0-3.125988-0.765997c-0.143999-0.032-0.289999-0.072-0.433998-0.097999a57.479775 57.479775 0 0 0-3.605986-0.625998c-0.319999-0.048-0.643997-0.084-0.967996-0.123999-0.929996-0.12-1.863993-0.215999-2.807989-0.291999a59.687767 59.687767 0 0 0-4.823981-0.212c-6.085976 0-11.953953 0.915996-17.487932 2.60599-16.093937-17.283932-39.045847-28.09789-64.527748-28.09789-28.503889 0-53.80779 13.557947-69.921727 34.543865a84.35967 84.35967 0 0 0-2.811989-0.871996c-0.449998-0.129999-0.897996-0.261999-1.351995-0.381999a81.207683 81.207683 0 0 0-4.351983-1.065996c-0.209999-0.044-0.413998-0.102-0.625997-0.145999a86.595662 86.595662 0 0 0-5.039981-0.873997c-0.449998-0.064-0.901996-0.114-1.355994-0.173999a87.879657 87.879657 0 0 0-3.933985-0.405999c-0.499998-0.04-0.995996-0.084-1.499994-0.115999a84.46567 84.46567 0 0 0-5.24598-0.179999c-8.515967 0-16.725935 1.281995-24.467904 3.645985-22.515912-24.183906-54.627787-39.313846-90.277647-39.313846-47.487815 0-88.703654 26.839895-109.315573 66.175741a63.433752 63.433752 0 0 0-15.655939-1.951992c-34.905864 0-63.209753 28.25389-63.299753 63.141753-39.249847 31.987875-62.995754 73.701712-62.995754 119.331534 0 0.709997 0.046 1.419994 0.126 2.131992 0.024 0.211999 0.058 0.423998 0.085999 0.639997a22.143914 22.143914 0 0 0 0.425999 2.199992c0.139999 0.545998 0.299999 1.091996 0.483998 1.633993 0.05 0.157999 0.094 0.315999 0.151999 0.471999 0.253999 0.707997 0.541998 1.413994 0.875997 2.117991 0.042 0.088 0.094 0.175999 0.135999 0.265999a26.919895 26.919895 0 0 0 1.287995 2.353991c0.331999 0.549998 0.691997 1.097996 1.069996 1.643994l0.315999 0.449998c1.015996 1.407995 2.179991 2.801989 3.491986 4.181984l0.18 0.179999c0.605998 0.629998 1.245995 1.257995 1.913992 1.879993l0.319999 0.299998c0.709997 0.649997 1.445994 1.295995 2.217991 1.935993 0.028 0.02 0.05 0.042 0.074 0.064a75.593705 75.593705 0 0 0 5.527978 4.133983l0.078 0.056c0.971996 0.659997 1.983992 1.317995 3.027988 1.969992l0.09 0.058c22.507912 14.041945 61.035762 25.7019 109.221573 33.23387l-28.733888 84.231671-7.971969 23.369909 22.015914 0.829997 53.041793 1.995992-50.709802 133.757478 79.125691-140.095453 7.87197-13.931946-17.531932-3.359987-43.57783-8.353967 37.847852-72.335717c24.109906 2.041992 49.721806 3.143988 76.269702 3.143987 15.893938 0 31.449877-0.393998 46.549819-1.145995l-44.335827 127.455502-10.777958 30.973879 29.499885 1.289995 78.367694 3.419987-75.209707 194.913238 113.199558-203.237206 10.433959-18.727927-23.311909-4.329983-65.933742-12.239952 65.515744-127.059504c48.921809-7.359971 88.245655-18.935926 111.511565-32.953871l-16.291937 45.369823-5.507978 15.33394 14.871942 0.795997 47.319815 2.53599-45.703822 115.019551 64.781747-119.069535 5.16398-9.489963-11.605955-2.037992-41.265838-7.233972 45.495822-90.447647c59.911766-8.413967 100.929606-25.5459 100.929606-45.315823z" fill="#1669AD" p-id="35680"></path><path d="M497.406057 584.117718l95.229628-184.679278-73.513713-31.549877-77.981695 224.163124-10.771958 30.975879 29.499885 1.287995 78.365694 3.421987-75.213707 194.915239 113.201558-203.239207 10.433959-18.729926-23.315909-4.327984zM686.19932 465.326182l55.439783-110.231569-36.757856-15.771938-46.741818 130.149491-5.507978 15.33194 14.871942 0.797997 47.319815 2.53399-45.701822 115.021551 64.779747-119.071535 5.16398-9.491963-11.605955-2.035992zM324.054734 537.205902l65.875743-125.901509-55.137785-23.663907-53.001793 155.359393-7.973969 23.367909 22.019914 0.827996 53.039793 1.999993-50.707802 133.755477 79.121691-140.095453 7.869969-13.933945-17.531931-3.359987z" fill="#EDC849" p-id="35681"></path><path d="M586.655708 600.683654l-23.315909-4.327984-65.933742-12.237952 95.229628-184.679278-34.311866-14.727943-92.03164 218.447147 93.117636 9.235964-96.389624 210.259179 113.201558-203.239207zM362.406584 399.494439L298.454834 544.997871l66.66374 10.407959-65.575744 143.909438-0.409998 1.085996 1.871992-2.47599 76.285702-135.069473 7.869969-13.933945-17.531931-3.359987-43.57383-8.355967 65.875743-125.901509zM739.065113 474.594146l-11.605955-2.035992-41.259838-7.231972 55.439783-110.231569-16.119937-6.917973-54.109789 123.061519 54.499787 10.655959-56.787778 121.263526 64.779747-119.071535z" fill="#DDAE2A" p-id="35682"></path><path d="M784.080937 241.487057c0.046-0.977996 0.074-1.961992 0.074-2.951989 0-33.033871-26.777895-59.811766-59.807766-59.811766-6.085976 0-11.957953 0.917996-17.487932 2.60599-16.093937-17.285932-39.045847-28.09789-64.527748-28.097891-33.945867 0-63.401752 19.183925-78.135695 47.297816a45.355823 45.355823 0 0 0-11.191956-1.395995c-24.945903 0-45.179824 20.195921-45.241823 45.129824-28.05389 22.867911-45.027824 52.681794-45.027825 85.293667 0 28.08789 82.799677 50.857801 184.945278 50.857801 102.139601 0 184.945278-22.769911 184.945278-50.857801 0-33.949867-18.403928-64.865747-48.543811-88.069656z" fill="#323232" p-id="35683"></path><path d="M807.276847 263.63297c-0.012 0.337999-0.012 0.681997-0.028 1.019996 0.789997 0.609998 1.565994 1.223995 2.339991 1.841993-0.753997-0.959996-1.527994-1.911993-2.311991-2.861989z" fill="#E8E9EC" p-id="35684"></path><path d="M485.902102 352.724622c0-32.609873 16.971934-62.425756 45.027824-85.291667 0.062-24.933903 20.291921-45.129824 45.241823-45.129823 3.863985 0 7.61397 0.485998 11.191957 1.395994 14.733942-28.11389 44.189827-47.299815 78.135694-47.299815 25.4799 0 48.433811 10.811958 64.527748 28.09789a59.757767 59.757767 0 0 1 17.487932-2.60599 59.513768 59.513768 0 0 1 29.089886 7.555971c-10.22196-18.323928-29.789884-30.72388-52.257795-30.72388-6.085976 0-11.957953 0.917996-17.487932 2.60599-16.093937-17.285932-39.045847-28.09789-64.527748-28.097891-33.945867 0-63.401752 19.183925-78.135695 47.297816a45.355823 45.355823 0 0 0-11.191956-1.395995c-24.945903 0-45.179824 20.195921-45.241823 45.129824-28.05389 22.867911-45.027824 52.681794-45.027825 85.293667 0 8.963965 8.449967 17.387932 23.25791 24.701903a14.515943 14.515943 0 0 1-0.09-1.533994z" fill="#494A4A" p-id="35685"></path><path d="M629.76954 271.37294c0.066-1.367995 0.102-2.741989 0.102-4.127984 0-46.213819-37.463854-83.679673-83.679674-83.679673-8.511967 0-16.721935 1.281995-24.463904 3.645986-22.519912-24.181906-54.627787-39.313846-90.281647-39.313847-47.487815 0-88.703654 26.839895-109.315573 66.175742a63.409752 63.409752 0 0 0-15.655939-1.951993c-34.901864 0-63.209753 28.25189-63.295753 63.139754-39.249847 31.989875-62.999754 73.705712-62.999754 119.333534 0 39.295847 115.847547 71.153722 258.752989 71.153722s258.748989-31.855876 258.74899-71.153722c-0.002-47.501814-25.743899-90.757645-67.911735-123.221519z" fill="#323232" p-id="35686"></path><path d="M662.217413 302.360819c-0.016 0.473998-0.016 0.951996-0.04 1.425994 1.105996 0.849997 2.191991 1.711993 3.273988 2.57799a172.593326 172.593326 0 0 0-3.233988-4.003984z" fill="#E8E9EC" p-id="35687"></path><path d="M212.59117 427.004332c0-45.625822 23.749907-87.339659 62.999753-119.331534 0.086-34.885864 28.389889-63.139753 63.295753-63.139753 5.401979 0 10.647958 0.679997 15.655939 1.953992 20.613919-39.331846 61.827758-66.177741 109.315573-66.177741 35.651861 0 67.761735 15.129941 90.281647 39.313846a83.615673 83.615673 0 0 1 24.463905-3.645986 83.229675 83.229675 0 0 1 40.699841 10.569959c-14.295944-25.6359-41.671837-42.983832-73.113715-42.983832-8.511967 0-16.721935 1.281995-24.463904 3.645986-22.519912-24.181906-54.627787-39.313846-90.281647-39.313847-47.487815 0-88.703654 26.839895-109.315573 66.175742a63.409752 63.409752 0 0 0-15.655939-1.951993c-34.901864 0-63.209753 28.25189-63.295753 63.139754-39.249847 31.989875-62.999754 73.705712-62.999754 119.333534 0 12.541951 11.819954 24.327905 32.541873 34.561865a19.843922 19.843922 0 0 1-0.127999-2.149992z" fill="#494A4A" p-id="35688"></path><path d="M784.080937 241.487057c0.046-0.977996 0.074-1.961992 0.074-2.951989 0-33.033871-26.777895-59.811766-59.807766-59.811766-6.085976 0-11.957953 0.917996-17.487932 2.60599-16.093937-17.285932-39.045847-28.09789-64.527748-28.097891-33.945867 0-63.401752 19.183925-78.135695 47.297816a45.355823 45.355823 0 0 0-11.191956-1.395995c-24.945903 0-45.179824 20.195921-45.241823 45.129824-28.05389 22.867911-45.027824 52.681794-45.027825 85.293667 0 28.08789 82.799677 50.857801 184.945278 50.857801 102.139601 0 184.945278-22.769911 184.945278-50.857801 0-33.949867-18.403928-64.865747-48.543811-88.069656z" fill="#323232" p-id="35689"></path><path d="M485.902102 352.724622c0-32.609873 16.971934-62.425756 45.027824-85.291667 0.062-24.933903 20.291921-45.129824 45.241823-45.129823 3.863985 0 7.61397 0.485998 11.191957 1.395994 14.733942-28.11389 44.189827-47.299815 78.135694-47.299815 25.4799 0 48.433811 10.811958 64.527748 28.09789a59.757767 59.757767 0 0 1 17.487932-2.60599 59.513768 59.513768 0 0 1 29.089886 7.555971c-10.22196-18.323928-29.789884-30.72388-52.257795-30.72388-6.085976 0-11.957953 0.917996-17.487932 2.60599-16.093937-17.285932-39.045847-28.09789-64.527748-28.097891-33.945867 0-63.401752 19.183925-78.135695 47.297816a45.355823 45.355823 0 0 0-11.191956-1.395995c-24.945903 0-45.179824 20.195921-45.241823 45.129824-28.05389 22.867911-45.027824 52.681794-45.027825 85.293667 0 8.963965 8.449967 17.387932 23.25791 24.701903a14.515943 14.515943 0 0 1-0.09-1.533994z" fill="#494A4A" p-id="35690"></path><path d="M629.76954 271.37294c0.066-1.367995 0.102-2.741989 0.102-4.127984 0-46.213819-37.463854-83.679673-83.679674-83.679673-8.511967 0-16.721935 1.281995-24.463904 3.645986-22.519912-24.181906-54.627787-39.313846-90.281647-39.313847-47.487815 0-88.703654 26.839895-109.315573 66.175742a63.409752 63.409752 0 0 0-15.655939-1.951993c-34.901864 0-63.209753 28.25189-63.295753 63.139754-39.249847 31.989875-62.999754 73.705712-62.999754 119.333534 0 39.295847 115.847547 71.153722 258.752989 71.153722s258.748989-31.855876 258.74899-71.153722c-0.002-47.501814-25.743899-90.757645-67.911735-123.221519z" fill="#323232" p-id="35691"></path><path d="M212.59117 427.004332c0-45.625822 23.749907-87.339659 62.999753-119.331534 0.086-34.885864 28.389889-63.139753 63.295753-63.139753 5.401979 0 10.647958 0.679997 15.655939 1.953992 20.613919-39.331846 61.827758-66.177741 109.315573-66.177741 35.651861 0 67.761735 15.129941 90.281647 39.313846a83.615673 83.615673 0 0 1 24.463905-3.645986 83.229675 83.229675 0 0 1 40.699841 10.569959c-14.295944-25.6359-41.671837-42.983832-73.113715-42.983832-8.511967 0-16.721935 1.281995-24.463904 3.645986-22.519912-24.181906-54.627787-39.313846-90.281647-39.313847-47.487815 0-88.703654 26.839895-109.315573 66.175742a63.409752 63.409752 0 0 0-15.655939-1.951993c-34.901864 0-63.209753 28.25189-63.295753 63.139754-39.249847 31.989875-62.999754 73.705712-62.999754 119.333534 0 12.541951 11.819954 24.327905 32.541873 34.561865a19.843922 19.843922 0 0 1-0.127999-2.149992z" fill="#494A4A" p-id="35692"></path></svg>