<?xml version="1.0" standalone="no"?><!DOCTYPE svg PUBLIC "-//W3C//DTD SVG 1.1//EN" "http://www.w3.org/Graphics/SVG/1.1/DTD/svg11.dtd"><svg t="1658737263970" class="icon" viewBox="0 0 1024 1024" version="1.1" xmlns="http://www.w3.org/2000/svg" p-id="40730" xmlns:xlink="http://www.w3.org/1999/xlink" width="200" height="200"><defs><style type="text/css"></style></defs><path d="M907.58371 94.523077H765.104072v-21.082353a73.440724 73.440724 0 1 0-146.881448 0v21.082353h-221.943891v-21.082353a73.440724 73.440724 0 0 0-146.881448 0v21.082353H116.41629a46.334842 46.334842 0 0 0-46.334842 46.334842V977.665158a46.334842 46.334842 0 0 0 46.334842 46.334842h791.16742a46.334842 46.334842 0 0 0 46.334842-46.334842V140.857919a46.334842 46.334842 0 0 0-46.334842-46.334842zM579.764706 651.931222H324.923077a46.334842 46.334842 0 0 1 0-92.669684h254.841629a46.334842 46.334842 0 0 1 0 92.669684z m121.860633-186.729412H323.301357a46.334842 46.334842 0 0 1 0-92.669683h377.397286a46.334842 46.334842 0 0 1 0 92.669683z" fill="#4A9ED8" p-id="40731"></path></svg>