<?xml version="1.0" standalone="no"?><!DOCTYPE svg PUBLIC "-//W3C//DTD SVG 1.1//EN" "http://www.w3.org/Graphics/SVG/1.1/DTD/svg11.dtd"><svg t="1721011213642" class="icon" viewBox="0 0 1024 1024" version="1.1" xmlns="http://www.w3.org/2000/svg" p-id="1589" xmlns:xlink="http://www.w3.org/1999/xlink" width="200" height="200"><path d="M690.048 423.722667h-21.76v26.453333h21.76a13.226667 13.226667 0 0 0 0-26.453333z" fill="#FCB31E" p-id="1590"></path><path d="M923.989333 368.213333l-120.874666-165.973333a76.714667 76.714667 0 0 0-61.994667-31.530667H283.989333c-24.32 0-47.146667 11.52-61.610666 31.061334l-121.941334 164.266666a76.757333 76.757333 0 0 0 5.674667 98.261334l350.976 374.058666c30.293333 32.298667 81.621333 32.298667 111.872-0.085333l348.928-372.48c25.173333-26.88 27.733333-67.84 6.101333-97.621333z" fill="#F9A802" p-id="1591"></path><path d="M739.328 170.666667H283.989333c-24.32 0-47.146667 11.52-61.610666 31.018666L100.437333 366.08a76.757333 76.757333 0 0 0 5.674667 98.218667l336.469333 358.4C576.853333 748.373333 834.261333 436.906667 739.328 170.666667z" fill="#FCB31E" p-id="1592"></path><path d="M283.989333 170.709333c-24.32 0-47.146667 11.52-61.610666 31.061334l-121.941334 164.266666a76.757333 76.757333 0 0 0 5.674667 98.261334l177.066667 188.672a547.584 547.584 0 0 0 215.893333-164.266667c56.661333-71.381333 115.285333-245.930667 118.016-317.994667H283.989333z" fill="#FFBF3C" p-id="1593"></path><path d="M100.437333 366.08a76.757333 76.757333 0 0 0 5.674667 98.218667l13.909333 14.634666c86.016 37.717333 286.293333-238.933333 315.989334-308.266666H283.989333c-24.32 0.042667-47.146667 11.52-61.610666 31.018666L100.437333 366.08z" fill="#FFC852" p-id="1594"></path><path d="M724.565333 332.245333l-197.12 303.36a11.733333 11.733333 0 0 1-8.746666 4.693334h-46.250667a8.96 8.96 0 0 1-7.68-5.12L341.717333 332.714667c-1.194667-2.858667 0.426667-5.248 3.498667-5.248h140.928c3.072 0 4.437333 2.261333 2.901333 4.949333l-20.010666 29.568a13.44 13.44 0 0 0-0.64 10.154667l41.642666 108.245333c1.109333 2.816 3.413333 3.114667 5.12 0.512l96.298667-148.650667a11.648 11.648 0 0 1 8.661333-4.693333h101.802667c3.114667-0.085333 4.309333 2.048 2.645333 4.693333z" fill="#FFFFFF" p-id="1595"></path></svg>