<?xml version="1.0" standalone="no"?><!DOCTYPE svg PUBLIC "-//W3C//DTD SVG 1.1//EN" "http://www.w3.org/Graphics/SVG/1.1/DTD/svg11.dtd"><svg t="1676877890838" class="icon" viewBox="0 0 1024 1024" version="1.1" xmlns="http://www.w3.org/2000/svg" p-id="911" xmlns:xlink="http://www.w3.org/1999/xlink" width="200" height="200"><path d="M0 0m512 0l0 0q512 0 512 512l0 0q0 512-512 512l0 0q-512 0-512-512l0 0q0-512 512-512Z" fill="#6E8DF6" p-id="912"></path><path d="M693.410909 256H323.188364A58.833455 58.833455 0 0 0 267.636364 314.833455v437.701818a15.569455 15.569455 0 0 0 21.410909 14.324363l218.379636-94.417454 222.487273 93.847273c4.759273 1.943273 10.170182 1.466182 14.522182-1.28 4.282182-2.885818 6.853818-7.68 6.865454-12.846546V480.896a56.436364 56.436364 0 0 0 0.570182-7.842909V314.274909A58.519273 58.519273 0 0 0 693.410909 256z m-57.681454 194.222545l-63.313455 45.928728 24.203636 74.263272a15.243636 15.243636 0 0 1-5.585454 17.105455 15.243636 15.243636 0 0 1-18.280727 0l-63.185455-45.917091-63.394909 45.975273a15.371636 15.371636 0 0 1-23.656727-17.140364l24.192-74.263273-63.301819-45.998545a15.243636 15.243636 0 0 1 8.96-27.717818h78.161455l24.203636-74.472727a15.371636 15.371636 0 0 1 14.545455-10.65891 15.010909 15.010909 0 0 1 14.522182 10.682182l24.203636 74.251637h78.184727c6.656 0.046545 12.567273 4.305455 14.696728 10.600727 2.327273 6.283636 0.209455 13.346909-5.178182 17.314909l0.023273 0.046545z" fill="#FFFFFF" p-id="913"></path></svg>