<?xml version="1.0" standalone="no"?><!DOCTYPE svg PUBLIC "-//W3C//DTD SVG 1.1//EN" "http://www.w3.org/Graphics/SVG/1.1/DTD/svg11.dtd"><svg t="1657529519693" class="icon" viewBox="0 0 1024 1024" version="1.1" xmlns="http://www.w3.org/2000/svg" p-id="1405" xmlns:xlink="http://www.w3.org/1999/xlink" width="200" height="200"><defs><style type="text/css"></style></defs><path d="M144 80m128 0l480 0q128 0 128 128l0 384q0 128-128 128l-480 0q-128 0-128-128l0-384q0-128 128-128Z" fill="#FFFFFF" p-id="1406"></path><path d="M193 128m112 0l447 0q112 0 112 112l0 384q0 112-112 112l-447 0q-112 0-112-112l0-384q0-112 112-112Z" fill="#FFE07A" p-id="1407"></path><path d="M752 768H272c-79.4 0-144-64.6-144-144V208c0-79.4 64.6-144 144-144h480c79.4 0 144 64.6 144 144v416c0 79.4-64.6 144-144 144zM272 96a112.12 112.12 0 0 0-112 112v416a112.12 112.12 0 0 0 112 112h480a112.12 112.12 0 0 0 112-112V208A112.12 112.12 0 0 0 752 96z" fill="#333333" p-id="1408"></path><path d="M816 528h-77.88a64.11 64.11 0 0 0-60.27 43 176 176 0 0 1-331.7 0 64.11 64.11 0 0 0-60.27-43H208A128 128 0 0 0 80 656v160a128 128 0 0 0 128 128h608a128 128 0 0 0 128-128V656a128 128 0 0 0-128-128z" fill="#FFFFFF" p-id="1409"></path><path d="M816 576h-46a64.06 64.06 0 0 0-57.35 35.62 224.07 224.07 0 0 1-401.34 0A64.06 64.06 0 0 0 254 576h-14a112 112 0 0 0-112 112v128a112 112 0 0 0 112 112h576a112 112 0 0 0 112-112V688a112 112 0 0 0-112-112z" fill="#FF9580" p-id="1410"></path><path d="M816 960H208c-79.4 0-144-64.6-144-144V656c0-79.4 64.6-144 144-144h77.88c33.65 0 63.93 21.55 75.34 53.64a160.06 160.06 0 0 0 301.56 0c11.41-32.09 41.69-53.64 75.34-53.64H816c79.4 0 144 64.6 144 144v160c0 79.4-64.6 144-144 144zM208 544A112.12 112.12 0 0 0 96 656v160a112.12 112.12 0 0 0 112 112h608a112.12 112.12 0 0 0 112-112V656a112.12 112.12 0 0 0-112-112h-77.88a48.28 48.28 0 0 0-45.19 32.36 192.05 192.05 0 0 1-361.86 0A48.28 48.28 0 0 0 285.88 544z" fill="#333333" p-id="1411"></path><path d="M256 256m32 0l192 0q32 0 32 32l0 0q0 32-32 32l-192 0q-32 0-32-32l0 0q0-32 32-32Z" fill="#333333" p-id="1412"></path></svg>